#!OML:ASF F:\VICON\USERDATA\INSTALL\Justin_Nancy\Justin_Nancy.ASF
:FULLY-SPECIFIED
:DEGREES
79
root -7.70588 15.1918 1.2105 -20.9857 35.9771 -20.3794
lowerback 26.1578 2.2647 11.3205
upperback 5.82981 7.37441 10.3002
thorax -8.00673 3.5404 2.70499
lowerneck -7.00077 -12.0793 -8.9989
upperneck 12.6474 -16.011 5.86298
head 6.17813 -7.81223 1.92789
rclavicle -3.29983e-014 1.59028e-014
rhumerus -22.9621 26.7281 -85.7103
rradius 87.3116
rwrist -12.0173
rhand -14.4602 27.4329
rfingers 7.12502
rthumb 11.6853 -2.2212
lclavicle -3.29983e-014 1.59028e-014
lhumerus -63.0003 -7.77 100.891
lradius 91.3152
lwrist 43.2171
lhand -26.9905 8.72878
lfingers 7.12502
lthumb -0.410944 38.7081
rfemur 4.69477 -4.87272 12.0666
rtibia 40.3179
rfoot -20.2146 -2.75798
rtoes -40.9358
lfemur -47.8566 16.269 -31.4446
ltibia 69.4873
lfoot -6.07044 -4.70871
ltoes 1.19647
80
root -7.4719 15.245 1.50016 -20.6835 36.8652 -20.2514
lowerback 25.2987 2.47409 10.8651
upperback 5.7677 7.39029 10.3422
thorax -7.70113 3.57769 3.03324
lowerneck -6.61241 -12.2996 -8.65082
upperneck 12.5818 -16.3777 5.88525
head 6.09211 -7.98104 1.87399
rclavicle -1.35174e-014 -3.18055e-014
rhumerus -23.1697 27.1589 -85.9905
rradius 89.0965
rwrist -12.337
rhand -14.4635 27.4963
rfingers 7.12502
rthumb 11.6822 -2.15797
lclavicle -1.35174e-014 -3.18055e-014
lhumerus -65.0883 -7.86364 100.825
lradius 92.6745
lwrist 44.1085
lhand -26.506 8.92678
lfingers 7.12502
lthumb 0.0570539 38.9065
rfemur 6.54395 -3.81979 11.7757
rtibia 39.3617
rfoot -19.1213 -1.27001
rtoes -39.8834
lfemur -46.9664 16.4158 -32.6137
ltibia 67.4603
lfoot -5.45868 -4.29699
ltoes 2.25848
81
root -7.22778 15.2877 1.78879 -20.6933 37.5841 -20.6092
lowerback 24.4831 2.57085 10.9183
upperback 5.57456 7.42265 10.3873
thorax -7.49871 3.60375 3.08159
lowerneck -6.06423 -12.5565 -8.06341
upperneck 12.684 -16.8003 5.67537
head 5.99446 -8.18239 1.72071
rclavicle -3.57812e-015 -1.90833e-014
rhumerus -23.8024 27.3237 -86.6856
rradius 90.6741
rwrist -12.8062
rhand -13.93 27.9559
rfingers 7.12502
rthumb 12.1966 -1.66855
lclavicle -3.57812e-015 -1.90833e-014
lhumerus -67.2494 -7.8953 100.598
lradius 94.009
lwrist 44.806
lhand -25.6618 8.66941
lfingers 7.12502
lthumb 0.872399 38.6474
rfemur 8.04914 -2.63619 11.993
rtibia 38.8938
rfoot -17.4472 0.666061
rtoes -36.8881
lfemur -45.9021 16.5571 -33.278
ltibia 65.337
lfoot -5.24719 -3.19294
ltoes 1.22155
82
root -6.97741 15.3382 2.07072 -20.6356 38.2063 -20.8765
lowerback 23.7557 2.69749 10.9168
upperback 5.35138 7.50185 10.4564
thorax -7.38304 3.64863 3.16937
lowerneck -5.54513 -12.7838 -7.80615
upperneck 12.9137 -17.1706 5.64191
head 5.98055 -8.3579 1.66621
rclavicle -4.73108e-014 -2.8625e-014
rhumerus -24.5423 27.3866 -87.3088
rradius 91.9665
rwrist -13.0794
rhand -13.2222 28.4923
rfingers 7.12502
rthumb 12.879 -1.09031
lclavicle -4.73108e-014 -2.8625e-014
lhumerus -69.2868 -7.81561 100.392
lradius 95.3262
lwrist 44.9543
lhand -24.9838 8.57189
lfingers 7.12502
lthumb 1.52722 38.5462
rfemur 9.16049 -1.27275 12.2044
rtibia 38.9284
rfoot -15.6266 1.22808
rtoes -41.7885
lfemur -44.6056 16.7655 -33.8492
ltibia 63.0058
lfoot -4.82332 -2.44043
ltoes 2.60434
83
root -6.71856 15.393 2.32655 -20.1666 39.1184 -20.4594
lowerback 22.9479 2.67362 10.3284
upperback 5.32707 7.19852 10.4825
thorax -7.06647 3.53349 3.64492
lowerneck -5.2507 -12.7687 -7.80238
upperneck 13.0474 -17.1695 5.63131
head 5.97233 -8.36058 1.67886
rclavicle -4.73108e-014 5.725e-014
rhumerus -24.8419 28.096 -87.6013
rradius 92.9401
rwrist -13.295
rhand -12.5239 28.7357
rfingers 7.12502
rthumb 13.5521 -0.803294
lclavicle -4.73108e-014 5.725e-014
lhumerus -70.6591 -6.9289 100.008
lradius 96.4933
lwrist 44.6319
lhand -24.8058 8.90139
lfingers 7.12502
lthumb 1.69909 38.8744
rfemur 9.82919 0.18531 11.6452
rtibia 39.3172
rfoot -13.4359 2.647
rtoes -45.6875
lfemur -42.9217 16.7809 -34.969
ltibia 60.4065
lfoot -3.64225 -2.45368
ltoes 4.95604
84
root -6.46185 15.4351 2.57289 -19.2977 40.2665 -19.4403
lowerback 22.1579 2.5534 9.2816
upperback 5.32812 6.65688 10.3714
thorax -6.75272 3.30424 4.28137
lowerneck -5.13002 -12.6921 -7.84311
upperneck 13.2747 -17.0778 5.6369
head 6.02189 -8.31498 1.6966
rclavicle 1.15295e-013 6.83819e-014
rhumerus -25.1766 29.1067 -87.8463
rradius 93.7327
rwrist -13.124
rhand -12.3333 29.2682
rfingers 7.12502
rthumb 13.7358 -0.25844
lclavicle 1.15295e-013 6.83819e-014
lhumerus -71.7369 -5.76267 99.3558
lradius 97.7845
lwrist 44.737
lhand -24.2975 9.19513
lfingers 7.12502
lthumb 2.19005 39.1636
rfemur 9.9846 1.86123 10.4904
rtibia 39.9565
rfoot -9.93031 5.92357
rtoes -44.1902
lfemur -40.9562 16.553 -36.5033
ltibia 57.5591
lfoot -2.19369 -2.81727
ltoes 2.94452
85
root -6.20669 15.4516 2.8438 -18.2785 41.4744 -18.2793
lowerback 21.3556 2.48922 8.2676
upperback 5.11671 6.21074 10.0491
thorax -6.62278 3.101 4.63364
lowerneck -4.74028 -12.781 -7.72666
upperneck 13.5027 -17.2553 5.73486
head 6.03957 -8.3919 1.71189
rclavicle 1.19271e-014 3.18055e-015
rhumerus -26.1296 29.5583 -88.5152
rradius 94.3957
rwrist -12.663
rhand -12.2434 29.1805
rfingers 7.12502
rthumb 13.8225 -0.340207
lclavicle 1.19271e-014 3.18055e-015
lhumerus -73.0389 -5.25275 98.5241
lradius 99.2914
lwrist 45.3506
lhand -24.4915 9.26923
lfingers 7.12502
lthumb 2.00269 39.2396
rfemur 9.96862 3.79158 9.39751
rtibia 40.7578
rfoot -5.02407 9.68064
rtoes -39.9767
lfemur -38.8754 16.4173 -38.0248
ltibia 54.7024
lfoot -1.34779 -2.72846
ltoes 9.42185
86
root -5.95119 15.4639 3.13185 -17.2553 42.6921 -17.0994
lowerback 20.8005 2.5403 7.37905
upperback 4.6339 6.00124 9.5489
thorax -6.88656 2.99078 4.64256
lowerneck -4.12442 -13.0827 -7.54164
upperneck 13.8691 -17.7553 5.89393
head 6.08514 -8.61879 1.7157
rclavicle 1.98785e-015 1.27222e-014
rhumerus -27.8027 29.1698 -89.5321
rradius 95.0595
rwrist -12.2268
rhand -12.0924 29.0969
rfingers 7.12502
rthumb 13.9679 -0.413886
lclavicle 1.98785e-015 1.27222e-014
lhumerus -74.7406 -5.97636 97.7023
lradius 101.328
lwrist 46.1236
lhand -24.3424 9.47379
lfingers 7.12502
lthumb 2.14666 39.4427
rfemur 9.87753 5.68032 8.46046
rtibia 41.7201
rfoot 0.463328 13.0885
rtoes -33.9589
lfemur -36.6976 16.5727 -39.4239
ltibia 52.1387
lfoot -0.531957 -3.50731
ltoes 17.0281
87
root -5.69705 15.4762 3.42865 -16.4987 43.6874 -16.3065
lowerback 20.2268 2.59977 6.57272
upperback 4.21106 5.83843 9.21605
thorax -7.08132 2.91201 4.7845
lowerneck -3.74222 -13.3487 -7.58368
upperneck 14.3525 -18.1913 6.11435
head 6.23 -8.81295 1.75402
rclavicle -6.08281e-014 7.95139e-014
rhumerus -29.5223 28.4373 -90.1827
rradius 95.6122
rwrist -10.951
rhand -11.2097 29.4023
rfingers 7.12502
rthumb 14.8185 -0.0478787
lclavicle -6.08281e-014 7.95139e-014
lhumerus -76.0528 -6.89057 96.85
lradius 103.549
lwrist 46.8109
lhand -24.4719 9.32987
lfingers 7.12502
lthumb 2.02161 39.3
rfemur 9.56604 7.5504 7.97452
rtibia 42.9417
rfoot 4.66432 15.9919
rtoes -27.3024
lfemur -34.6453 17.0506 -40.3539
ltibia 50.3247
lfoot 0.452298 -4.86363
ltoes 29.8045
88
root -5.45403 15.4835 3.72952 -16.0968 44.2907 -16.0841
lowerback 18.2691 2.41782 5.06883
upperback 4.91627 5.04644 9.62727
thorax -5.39288 2.59555 6.36472
lowerneck -4.56605 -13.1157 -7.61835
upperneck 14.3817 -17.7961 5.88108
head 6.3309 -8.62061 1.66996
rclavicle 5.84427e-014 1.11319e-014
rhumerus -29.2366 29.5004 -89.4741
rradius 95.8091
rwrist -9.68102
rhand -9.7436 29.7827
rfingers 7.12502
rthumb 16.2305 0.442091
lclavicle 5.84427e-014 1.11319e-014
lhumerus -74.7747 -5.16396 95.5746
lradius 105.122
lwrist 46.5148
lhand -22.5705 8.62448
lfingers 7.12502
lthumb 3.85791 38.5693
rfemur 9.00061 9.56025 8.17281
rtibia 44.452
rfoot 5.91873 18.6028
rtoes -24.3066
lfemur -32.8937 17.981 -40.7098
ltibia 49.5573
lfoot -1.95821 -4.74843
ltoes 30.2989
89
root -5.22586 15.4812 4.0149 -15.6848 44.8915 -15.8202
lowerback 18.9002 2.5141 5.06312
upperback 3.72701 5.28694 9.01983
thorax -6.98633 2.67397 5.60491
lowerneck -3.75081 -13.3219 -7.55369
upperneck 15.2768 -18.1913 5.99385
head 6.51212 -8.79603 1.68485
rclavicle 6.36111e-015 1.39944e-013
rhumerus -32.5956 28.0167 -91.1509
rradius 96.4841
rwrist -9.00776
rhand -9.33695 29.7337
rfingers 7.12502
rthumb 16.6221 0.42547
lclavicle 6.36111e-015 1.39944e-013
lhumerus -75.8765 -5.85557 93.773
lradius 107.075
lwrist 46.7554
lhand -18.5461 8.20491
lfingers 7.12502
lthumb 7.74325 38.0431
rfemur 8.34789 11.3508 8.31404
rtibia 46.2683
rfoot 4.89934 19.7502
rtoes -24.7305
lfemur -31.3161 19.2183 -41.0481
ltibia 49.7273
lfoot -3.86062 -5.21865
ltoes 31.8372
